<svg fill="none" height="585" viewBox="0 0 585 585" width="585" xmlns="http://www.w3.org/2000/svg" xmlns:xlink="http://www.w3.org/1999/xlink"><filter id="a" color-interpolation-filters="sRGB" filterUnits="userSpaceOnUse" height="407.645" width="368.087" x="136.513" y="118.534"><feFlood flood-opacity="0" result="BackgroundImageFix"/><feColorMatrix in="SourceAlpha" result="hardAlpha" type="matrix" values="0 0 0 0 0 0 0 0 0 0 0 0 0 0 0 0 0 0 127 0"/><feOffset dx="17" dy="19"/><feGaussianBlur stdDeviation="9.3"/><feComposite in2="hardAlpha" operator="out"/><feColorMatrix type="matrix" values="0 0 0 0 0 0 0 0 0 0 0 0 0 0 0 0 0 0 0.35 0"/><feBlend in2="BackgroundImageFix" mode="normal" result="effect1_dropShadow_2_6"/><feBlend in="SourceGraphic" in2="effect1_dropShadow_2_6" mode="normal" result="shape"/></filter><filter id="b" color-interpolation-filters="sRGB" filterUnits="userSpaceOnUse" height="182.074" width="188.244" x="224.192" y="175.434"><feFlood flood-opacity="0" result="BackgroundImageFix"/><feBlend in="SourceGraphic" in2="BackgroundImageFix" mode="normal" result="shape"/><feColorMatrix in="SourceAlpha" result="hardAlpha" type="matrix" values="0 0 0 0 0 0 0 0 0 0 0 0 0 0 0 0 0 0 127 0"/><feOffset dy="23"/><feGaussianBlur stdDeviation="2"/><feComposite in2="hardAlpha" k2="-1" k3="1" operator="arithmetic"/><feColorMatrix type="matrix" values="0 0 0 0 0 0 0 0 0 0 0 0 0 0 0 0 0 0 0.25 0"/><feBlend in2="shape" mode="normal" result="effect1_innerShadow_2_6"/></filter><linearGradient id="c" gradientUnits="userSpaceOnUse" x1="585" x2=".000025" y1="559.845" y2="-.000026"><stop offset="0" stop-color="#081a23"/><stop offset="1" stop-color="#1d2932"/></linearGradient><linearGradient id="d" gradientUnits="userSpaceOnUse" x1="303.557" x2="303.557" y1="138.534" y2="468.579"><stop offset="0" stop-color="#84ccb8"/><stop offset=".817308" stop-color="#196072"/></linearGradient><path d="m0 0h585v585h-585z" fill="url(#c)"/><g filter="url(#a)"><path d="m160.563 390.921c-1.622 12.758-2.45 25.724-2.45 38.829v38.829m2.45-77.658c17.599-138.451 128.631-252.387 288.437-252.387l-19.392 77.658h-58.178l19.393 38.829-38.785 38.828h-77.57l38.785 38.829-19.393 38.829h-77.57z" fill="url(#d)"/><path d="m160.563 390.921c-1.622 12.758-2.45 25.724-2.45 38.829v38.829m2.45-77.658c17.599-138.451 128.631-252.387 288.437-252.387l-19.392 77.658h-58.178l19.393 38.829-38.785 38.828h-77.57l38.785 38.829-19.393 38.829h-77.57z" stroke="url(#d)" stroke-linecap="round" stroke-linejoin="round" stroke-width="40"/></g><g filter="url(#b)"><path d="m251.075 340.311c.052-.154.469-.692.6-.94.183.398-.788 1.492-.6.94zm-18.218-38.698c.036.297.072.594.107.891.288-.668.499-1.639.813-2.229.052-.096.29.327.385.087s-.367-.401-.298-.783c.078-.437 1.029-2.167 1.251-2.807.827-2.434 1.505-5.029 2.712-7.342-.69 2.674.688.362.851-.421.037-.171-.857-.639.482-3.017.875-1.512 1.42.679 2.062-2.312-1.84 1.497-.841-.454-.07-2.063.128-.28 1.39-2.393 1.88-3.375.165-.337-.017-1.142.214-1.587.159-.306.535-.364.772-.813 1.115-2.097 2.3-4.101 3.665-6.028.42 2.029 1.076-.524 1.196-.571.617-.222-.664 1.944.075 1.264.714-1.18 1.471-2.38 2.212-3.527-.786.816-.119-2.012.55-2.104-1.146-.712 4.578-4.283 4.859-5.287.053-.216-1.261.361.867-1.82.23-.232.455.137.535-.022.047-.093-.523-1.452.433-1.486.347-.004-.009 1.747 1.908-1.085-1.85.119 2.507-4.067 3.481-4.613-.276.038-.552.077-.827.115 1.07-.473.876-.939 1.058-1.106.74-.677 1.942-1.31 2.534-2.013.683-.81.115-1.44 1.165-2.082-.33.078-.653.151-.986.235.605-.585 1.208-1.161 1.824-1.745-.555 2.22.326-.267.422-.401.146-.212.218.379.47.033.024-.038-.326-.302.093-.808.862-1.042 1.087-.486 1.473-.892.034-.039-.367-.191.244-.95 1.962-2.42.193.23.154.351-.055.16 1.807.593-.396 2.027.729-.489 1.298-.031 1.379-.088.068-.051 1.058-1.204 1.102-1.283.357-.711-.453-.599-.412-.767.038-.143 1.774-.967 1.031-2.34 1.559.398.534 1.235-.364 2.442.047.353 1.374-.589 1.425-.64 1.443-1.439-.141-1.467-.325-2.309-.096-.441 1.039-.472-.217-.664 1.263-1.401.86-.17 1.006-.192.219-.035.491-.712.577-.742.127-.044.067.51.497.264.026-.016.06-.157.049-.306l1.071-.951c-.005-.181-.077-.38-.325-.39l-1.095.972c-.105.005-.239.045-.409.136.111-.096.205-.185.285-.267l1.104-.979c.668-.598.436-.808 1.326-.343-.604-2.093 1.232.486 1.565.347.88-.367-.321-1.389-.332-1.479-.057-.593 2.166-1.788 2.473-2.344.544 1.012-1.466 1.266-1.622 1.686-.512 1.39 1.733-.742 1.931.944.048-.549.093-1.097.136-1.643 1.131.231.577 1.219 1.875-.316-.258-.809-.988 1-1.118.301-.101-.39.751-1.214.64-1.37-.13-.191-.752.693-.854.316-.207-.827 3.126-2.693 1.211-.528.524-.459 1.569.16 1.976-.2.061-.054.107-.129.136-.234.052-.194-.37-.316-.757-.502-.331-.159-.637-.366-.597-.707.038-.326.394-.777 1.329-1.408.524.495-.991 1.109-.988 1.179.007.098 1.267 1.151 1.356 1.18.301.088 2.631-2.998 3.808-2.921-.845-.513 2.107-1.973 2.175-2.397.019-.117-.612-.336-.577-.443.204-.636 2.223-.984 2.836-1.455.696-.535.289-.836.327-.867.314-.222.294.225.474.076.279-.233 2.154-1.677 2.237-1.835.015-.039-.667-.206-.313-.631.059-.072.453.461 1.499-.759 1.254-1.458-1.565.21-1.403-.814 1.599-.025.926-.737 1.233-.886.107-.05 1.307.048 1.974-.555-.416.506-.837 1.018-1.262 1.536.608-.307 1.426-1.194 1.986-1.435.262-.109.533.545.977.164.09-.082-.602-1.649-1.317-.121-.482-.371.342-.54.496-.877.022-.052-.464-.926.27-.728.175.054 1.196 2.913 2.062-.438.028-.107-.454-.182-.433-.294.015-.077.673-.413.701-.501.028-.091-.499-.173-.473-.291.129-.607 1.646.169.774.709.394-.068.774-.124 1.187-.208-1.062-.647.227-.6.586-.93 2.295-2.098.165-1.382.33-2.009.262-.997 1.048.904 1.646-.316.071-.125-1.739.214.998-1.308-.336.301-.681.61-1.014.911.932.69 1.249-1.068 1.32-1.14.849-.845.474-.056 1.495-1.552.093-.135.532-.125.718-.437.768-1.286-1.686.85-2.042.559-.187-.138 2.654-2.214 2.834-2.216.715.036-1.166 1.13-.468 1.321.261.044 4.023-3.278 5.03-3.727 1.122-.499 2.471.331 1.436-.948 1.31 1.041.853.015.988-.067 1.624-.98 1.614-.951 2.841-1.994.277-.233.83-.032.884-.168.031-.081-.406-.404-.205-.735.279-.461 3.122-1.737 3.504-1.65.363.093-1.015.823-.5 1.034.954-.587 1.768-1.261 2.726-1.821.401-.232.396.15.57.045.075-.047 1.281-1.145 1.154-1.201-.329-.135-4.364 2.71-3.615 1.554.145-.225 1.336-.12.671-.758 3.857-2.257 7.931-4.456 12.184-6.435-2.043 1.767-4.946 2.751-7.262 4.221-.328.206-1.438.786-1.044 1.069 2.018-1.122 4.408-2.783 6.563-3.63.068-.027.05.425.321.347.497-.146 1.634-1.453 1.97-1.443.061.009-.502.876-.074 1.015 1.092.356.278-1.277.86-1.548.449-.218 3.86-.917 4.342-1.72.51-.874-2.387.738-2.406.229 1.8-1.389 4.152-1.864 6.08-2.707.034-.015-.435-.216-.02-.436.723-.381 1.16-.005 1.568-.078.444-.083 1.831-.68 2.095-.579.034.013-.029.564-.066.593-.51.409-1.027-.084-1.087-.071-.224.059-.319.362-.518.424-.328.101-.608-.037-1.035.11-.294.1.189.388-.096.48-.103.032-1.677-.435-1.28.537.113.221 9.208-2.739 9.983-3.14-.818.136-1.629.276-2.435.42 1.642-.251 3.251-1.562 3.813-.529 5.738-1.663 11.381-2.885 16.962-3.896 1.007-.109.661.59 2.234.101-.486-.106-.97-.213-1.452-.324.882-.031 4.661-.454 5.201-.661.073-.028.012-.555.931-.748.817-.171 1.072.179 1.542.175.382.001.746-.155.86-.152.086.004.188.222.397.23.658.022-.04-.52.801.096-.142.051-.284.102-.426.153.782-.014 1.918.132.854.476-.182.06-.085-.18-.227-.156-5.552.994-.966.636.87-.016.595.225 3.412-.44 3.489-.381.153.064-.247.378.434.482.123.022 3.857-.75 2.607-.152-.264.125-2.084.343-2.501.425 1.177.448 3.33-.835 3.624-.848 1.138-.094-1.977.87.542.515 1.854-.248.016-.356.673-.632.363-.147 2.592-.06 2.385-.577.718-.162.369.176.466.183.091.003 1.502-.367 2.016-.332.061.005-.046.293.021.305.152.01 1.467-.234 1.52-.263.031-.02-.356-.196-.239-.268.134-.083 1.464-.211 1.521-.283.074-.106-1.532.174-1.332-.108.761-.036 1.948-.358 2.403-.605-.11.068-.847.168-1.107.18.016-.366 1.615-.542 1.146-.21.306-.186.047-.234.204-.393.041-.04.537-.103.617-.171.009-.012-.542-.083-.458-.163.148-.143 1.683-.27 1.82-.253.379.05-.842.289-.903.441-.01.025 1.126.172 1.149.191.133.245-1.095.207-.893.422.303.012.607.023.912.033-1.063.381-3.123.532-3.551.888 1.572-.31 3.311-.533 3.477.057.069.249-.595.512-.549.573.169.213 1.08-.201 1.121-.193.034.008.052.019.056.032.034.131-1.335.467-1.384.542-.084.132.662.474.689.572-.017.023-.966.321-.585.433.384.113 1.246-.06 1.283-.048.192.069-1.284.476-1.307.55-.014.038.843.061.883.11.036.051-.539.307-.725.54-.139.175.406.157.322.198-.064.03-1.453.353-1.511.393-.091.059.279.146.244.198-.05.075-.51.123-.435.17.054.041 1.942.165 1.974.306.049.253-1.941.169.042.698.013.003.408-.182.422-.179.307.105-.945.765.67.247-2.928 1.19-.271.484-.598 1.029-.128.213-1.258.646-1.254.672.171.175.489-.104.643-.042.083.033-.874.589-.602.659.138.036 1.217-.354 1.268-.355.471-.013-.019.309.103.372.081.043.743-.181.764-.176.033.012-.79.58-.946.738-.121.121.438.04.349.106-.541.398-1.915.384-.528.602.084.013.535-.174.551-.171.335.078-.5.411-.603.621-.18.364.973-.25.033.324.793-.121 1.207-.297 2.084-.694-2.417 1.087-3.043 2.151-.375 1.008-.861.347-.654.687-.906.802-.158.074-1.484.207-.677.837.1.078.799-.388.631-.065-1.781.737.001.159.013.184.093.528-4.211 2.054-4.997 2.461-.844.467-1.457 1.279-1.639 1.368-.6.283-.172-.189-.332-.213-.175-.023-1.687 1.223-1.818 1.252-.375.055-.113-.4-.153-.397-.492.016-2.761 1.325-3.406 1.548.079.195 1.369-.395.664.305-.815.821-1.133-.05-1.171-.079-4.388 2.029-8.55 3.997-12.798 6.058.228.553 2.836-1.214 2.946-1.172.46.261-4.084 2.507-4.759 2.599.474-.087.954-.177 1.435-.27-.524 1.044-2.445.988-3.342 1.808-.29.269.43.209.424.234-.265.458-.944.567-.621-.03-.808.829-.811.377-1.526.714-.036.018.367.143-.139.552-.246.194-1.567.912-1.661 1.269-.025.147 1.069.89.787-.115 1.627-.331.301-.688.881-.975.095-.043.067.599 1.462-.438.049 1.097-1.878 1.3-2.106 1.565-.488.564 2.073-.271 2.287-1.257.046.853.234-.005.767-.257.599-.284.42.07.74-.101.884-.469.339-.778 1.24-.714-1.236-1.025 1.262-.862 1.924-.8-.888.557-1.873 1.153-2.759 1.722l.237.138c-.247.122-.493.243-.736.364.012-.093.025-.186.038-.279-1.046 1.14-1.591.799-1.687.844-1.356.665-2.809 1.49-4.113 2.234-.189.109.125.533-1.388.943-.5.138-.236-.5-.72-.145-.19 1.435-.524.579-.71.686-.527.314-.724.772-.77.804-.595.42-1.586.97-2.237 1.44-.01.012.494.122.009.304-.153.063-2.247-.484-3.205.772.355-.106.712-.212 1.072-.319-.448.097-2.767 2.173-1.953 2.147.488-.023.942-1.586 1.483-.751-1.013.279-5.19 3.903-5.616 3.972-.065.006.048-.51-.038-.499-.069.008-1.012.842-1.21.832-.119-.007.207-.529.108-.608-.077-.054-1.39.785-1.226 1.215.207-.391 1.134-.925.882-.263-.033.084-.475.078-.513.182-.355.965 1.478-.664 1.784-.886-.923 1.406-3.105 2.341-4.262 3.813-.763.16.505-1.168-.295-.895-1.672.576-.057.722-.074.796-.105.586-2.371-.135-1.482 1.14-.605.22-.567-.077-1.12.681.152.01.303.02.454.031-.214 1.395-3.132.944-3.137.703.045-.672 1.312-.813 1.368-.887.079-.108-.537-1.67 1.435-1.505-.129-1.278-2.263 1.002-1.621-.5-.644.696-4.067 2.706-4.206 3.482-.014.096.896.74-.185.972-.517.11.327-.67.012-.72-.954-.204-7.442 6.442-8.783 7.778-.087.082-.284-.218-.368-.136-.243.24-.829 1.515-1.405 1.83 1.393-.402-.45 1.398-.992 1.805-.779.58-1.15.059-1.549.247-1.554.734-2.467 3.655-4.347 3.453.99 1.014-2.162 1.046-2.914 1.712-.61.543-.891 2.078.315 1.755-1.092.912-2.1 2.187-3.002 3.124-.155.159-.206-.367-.461-.085-.021.028.216.375.003.626-1.778 2.092-1.381.539-1.93.682-.31.081-.517.169-.65.256 1.158-1.144 2.383-2.469 2.725-2.796-.888-.433-2.463 2.456-3.336 2.899-.03.015-.277-.447-.304-.428-.001.001-.001.001-.002.002-.285.202-1.735 1.74-1.017 1.916.202.039.906-.587 1.762-1.425-.171.305.384.575.356.632-.335.678-1.903 1.329-2.405 1.67-.112.077.134.349.118.365-.46.295-.974-.648-.69.541-1.587-.341 1.254-1.364.548-1.872-.52-.4-5.023 4.001-4.326 4.754-.088-.07-.241-.118-.476-.121-.515-.011-1.781 1.221-1.896 1.569-.015.063.649.813.606.863-.134.146-2.212.887-2.436 1.852.415-.168.829-.334 1.24-.5-1.941 1.661-1.461 1.641-.607 1.312.035-.026.091-.024.125-.047.651-.261 1.427-.642 1.488-.59.142.12-.974 1.247-1.891 1.847-.59.387-1.087.548-1.065.053.004-.077.36-.313.654-.54.378-.292.657-.571-.016-.491-.052.006-.145.072-.257.167-.34.287-.863.849-.939.841-.385-.042.045-.834.337-1.555.218-.537.362-1.035.058-1.165-.035.336-.172.592-.357.811-.336.4-.831.678-1.16 1.098-.233.295.02.738-.008.775-.44.539-.485-.111-.652.046-.1.096-.375 1.784-1.18.442-2.543 3.58-.195 1.646 1.803-.137-.329 1.011-1.701 1.795-2.193 2.37-.173.203.279.499.001.862-.354.463-1.961 1.548-3.408 2.477l.893-.792c-.801.582-1.517 1.081-1.858 1.324.372-.589-.159-.861-.516-.479-.356.381.48.625.461.751-.026.137-2.04 1.512-2.286 1.871 1.181-1.455.484-1.571-.714-.542.056-.269.112-.539.169-.81-.53.795-2.514 1.482-2.712 2.011-.031.084.507.219.489.266-.189.445-1.69 1.197-1.626 1.354.047.136.809-.042.762.264-.01.063-.922.057-1.27.593-.13.198.281.414.256.472-.206.48-.516-.239-1.079.45-.424.519-.275 1.363-1.098 1.811 2.818-1.391.71.063.024 1.086-.113.168.581.595-.551 1.134.798-2.709-1.063-.032-1.549.412-.029.021-.411-.33-.649-.114-.019.019.261.235.066.458-1.84 2.108-.834.602-1.467.735-.276.062-.903 1.353-1.152 1.612-.059.059-.295-.213-.516.022-.384.411-.48 1.04-.728 1.326-.03.032-.45-.346-.824.282-.106.176-.117.468.205.377 1.068-.308 1.674-2.193 2.846-2.58 1.061-.345-1.126 1.829-1.234 1.942-.041.044.19-.574-.295-.178-.414.342-.376 1.666-1.075 2.057-.053.03-1.096-.09-1.112-.141-.009-.041.524-.822.251-.886-.033-.006-.452.42-.638.356-.226-.079-1.989-1.295-2.121-1.235-.334.155.179.317.002.451-.383.288-1.959 1.031-1.443 1.542.214-.16.428-.321.644-.481-.957 1.098-.289.851-.329 1.088-.042.255-.484-.203-.872.118-.09.073-1.395 1.653-1.161 1.791.444-1.09.76-.285.806-.314.174-.11.012-.577.203-.766 1.357-1.325.57.507 1.014.3.151-.071.077-.536.138-.571.194-.113.572.205.638.081.154-.293-.638-.478-.647-.52-.132-.494 1.078-.958 1.156.052.505-.123-.158-.77.36-.769 1.028.002.173.601.076.875-.347.979-.826.962-1.688 2.034-.31.385-.367 1.088-.503 1.266-.09.111-2.216.142-.372 1.678-.539.231-2.321-.157-2.634.299-.276.403.493.804.488.858-.007.082-.451.473-.488.691-.042.255.288.365.148.712-.342.859-1.01.338-1.115.373-1.229.435.054.796-.027 1.032-.08.21-2.482 2.299-2.645 2.975.033-.297.067-.595.101-.894-.733.071-.359.938-1.13.423 1.173.916-.278 1.113-.431 1.369-.061.099.156.232.073.351-.322.465-1.288 1.365-1.371 1.678-.367 1.332 2.514-.841 2.736-.997-.358.398-1.966 2.915-.505 2.216.226-.105-.089-.75-.035-.858.37-.719.462.095.55.076.144-.033.003-.755.15-.826.048-.024.304.5.807-.081.189.573-1.538 2-1.612 2.291-.026.105 1.299.182-.763 1.07.1.035.199.071.299.107-.605.822-1.213 1.668-1.807 2.51-.129-.202-.173-.897-.535-.262-.208.367.423.367.413.406-.125.328-4.299 5.794-5.008 7.001-.244.387-.635 1.638-.686 1.726-.296.495-1.689 2.169-1.879 2.565-.116.237.37.181.224.371-.136.176-.346-.164-.396-.116-.411.382-2.242 4.107-3.086 4.858.428-.506 1.391-3.342 1.128-3.406-.039-.004-.686.527-.645.711-.415.09-.008 1.189-.429 1.522-.047.039-.416-.349-.947.346-.18.238-.223 1.071-1.028 1.55-.386 1.007-4.024 6-3.752 6.537.019.019.609-.642.513-.079-.129.75-.647-.17-1.167.57-.074.1-1.248 2.333-1.235 2.414.084.829 1.383-.996 1.425-.95.1.12-.748 1.726-.814 1.768-.067.048.057-1.445-.6.161.175-.148.351-.294.527-.44-.279.765-.743.68-.87.845-.395.517-.118 1.338-1.406 1.955-.339.164-.34-.315-.388-.296-.437.194.092.803-.688 1.025-.057.019.168-1.081-.793.633.118-.1.235-.2.353-.299-.018.278-.943 2.062-1.107 2.298-.468.672-.487-.049-.827.648.734-.268-.393 1.836-.729 1.578.347.458-1.084 2.187-1.554 2.992-.303.523-.714 1.685-.837 1.849-.147.198-.428.023-.708.378-.075.096-.496 1.333-1.345 2.173-.167.166-.888.39-.823-.006.105-.675 1.14-1.676.826-1.777-.346-.082-.967 1.518-1.232 1.919-1.218 1.863-.952.638-1.082.65-.311.043-.849 1.121-.894 1.16-.189.154.009-.676-.134-.738-.186-.082-1.036.849-.983.589.073-.376.823-1.235.84-1.298.191-.851-.778.07-1.131.299-.108.068-.051-.333-.105-.264-.826 1.056.506.455.082 1.205-.378.673-.244-.314-.274-.293-.033.026-.433.853-.59.947-.072.048.345-2.299.041-2.294-.243.7-.493 1.416-.743 2.121-.344-.046.328-.971.34-1.082.023-.23-.392.291-.483.231-.058-.035-.004-.796-.358-.214-.12.199-.09.731-.627 1.39.811-2.733-.137-.972-.28-.918-.14.035.097-1.333-.466.227-.639-.147-.183-.094-.12-.572.076-.594-.613.598.307-1.346-.342.004-.929 1.64-.976 1.694-.047.064-.06-.33-.154-.224-1.088 1.277-.467.356-.97.663-.046.025-.662 1.391-.34.301.566-1.955 1.3-2.687.5-3.324-.886 1.369-.885 3.292-1.036 3.741-.214.683-.148-.078-.224-.011-.025.024-.205.615-.221.619-.759.186.824-2.57 1.045-3.599-.187.225-.373.451-.558.68.11-.358.22-.714.329-1.068-.746 1.617-.09.032-.522-.579-.098-.138-.218 1.044-.185-.34-.361.904-.382.568-.482 1.474-.208-.1.099-2.1.189-2.88-1.003 2.548.233 1.346-.847 3.472.146.504.402-.574.423-.477.064.37-.388 1.01-.118 2.085.043.175.505-.344.209.557-.033.099-.439.602-.452.589-.153-.138.086-.691.019-.74-.064-.047-.214.61-.234.606-.227-.056.074-.566-.019-.509-.211.119-1.335 2.287-.343-.701-.461 2.604.159.4.338-.599.045-.255-.075-.365-.025-.733.061-.467.282-.985.325-1.238.043-.269-.704 1.087-.012-1.007-.646.985-.791 2.956-1.3 3.934-.999 1.98-.158-1.674-.118-2.049.013-.104-.258.164-.253.094.002-.099.617-2.149.506-2.411-.112-.261-.183.765-.367.773-.119.001.281-2.577-.125-1.248-.274.927-.246 2.801-.777 2.915.261-1.333.566-2.795.84-4.162-.37.68-.732 1.371-1.086 2.073.283-1.592.804-2.841.837-4.381-1.391 3.263-.275-1.315-.334-1.43-.045-.042-.881 1.216-1.009 1.386.052-1.325.683-5.154-.423-3.176.229-.351.026-1.454-.008-1.451-.328.01-.508 2.216-.715 1.775-.243-.516.279-.936.355-1.563.381-3.211-1.421-3.003-.644-6.102-.072.041-.144.082-.215.124.677-3.508 1.418-6.989 2.247-10.472-.318-1.615.062-5.484.544-7.268.085-.343.867-2.057.961-2.159.177-.207-.117 1.205.252.662.074-.128.979-3.081.561-3.039-.139.342-.213 1.467-.344 1.609-.99 1.018 2.052-8.315 1.999-8.884-.193.159-.38.306-.568.461.233-.562.488-1.161.737-1.737zm18.551 36.359c.136.408-.534 1.074-.709 1.554-.242.682.292 2.087-.591 1.244.427-.9.877-1.881 1.3-2.798zm8.1-12.613c-.548.502-1.061-.266-.451-.609.068-.037 1.191-.063.451.609zm-4.009 5.944c.005-.03.325-.531.347-.544.567-.343-.404 1.167-.347.544zm17.367-27.47c-.366.545.747.653.662.132-.006-.033-.637-.168-.662-.132zm-.31.359c-1.048-.02-.192 1.671.16.93.034-.072-.109-.927-.16-.93zm-14.597 23.091c-.201-.16.27-.707.479-.933.218.093-.356.672-.479.933zm9.045-14.488c-.197-.139-1.454 1.778-1.256 2.032.076-.353 1.436-1.927 1.256-2.032zm2.964-4.826c-.07.024-.457.672-.251.757.47-.168.569-.865.251-.757zm6.767-8.604c-.022-.063-1.625-.482.041-.926.244-.063.125.678.214.656.179-.049.293-.106.359-.169-.292.528-.649 1.039-.764 1.035-.541-.019.159-.569.15-.596zm2.845-4.95c-.115-.249.534-.762.743-.834.037-.011.472.494.679.198.167-.239-.672-.335-.197-.688.48-.357.34.508.402.492.081-.021.45-.864.745-.598.218.199-.593.772-.703.982-.14.269.496.301.072.602-.266.19-.831-.458-.911-.436-.065.019-.417 1.133-.827.282-.001 0-.002 0-.003 0zm-2.155 4.366c-.007.051-.029.099-.076.145.026-.048.051-.097.076-.145zm-25.247 37.399c.342-.249.015.733-.396 1.003-.171-.056.343-.964.396-1.003zm25.052-38.21c.764-.563.564.106.195.811.035-.28-.45-.621-.195-.811zm-15.29 21.803c.069-.014.157-.006.28.043-.191.037-.267.014-.28-.043zm1.452-1.876c.045-.83-.792.528-.521.639.103.039.519-.607.521-.639zm10.034-14.706c-.08.03-.654-1.524-.67.214.636-.547.247.2.361.253.324.156.862-1.072 1.181-1.222-.401-.521-.609.663-.871.753 0 .001-.001.001-.001.002zm13.748-16.135c.176.408-.35.74-.651 1.006-.18-.402.343-.736.651-1.006zm83.124-73.653c-2.147 1.785-3.05.73-.708-.153.053-.019.786-.062.708.153zm-18.207 13.906c-.617-.38-.047-1.051.558-1.212.137-.036.91.206.59.683-.488-.687-1.328-.366-1.148.529zm-74.89 70.02c-.206-.464.6-.895.94-1.174.138.418-.575.97-.94 1.174zm85.542-79.545c-.248.126-.116.724-.055.735.276.054.465-.65.055-.735zm-87.296 81.509c-.251-.121.223-1.102.832-.778-.19.148-.673.851-.832.778zm11.02-11.844c-.236.025.201-.786.509-.883.218.223-.357.867-.509.883zm72.854-66.732c-.22.115-.714.503-.637.742.093.3.742-.369.637-.742zm43.749-25.957c.049.038-.818.959-1.329 1.094-.939.236 1.309-1.126 1.329-1.094zm-38.328 21.21c.887-.001-.062.063.223.527.436-.294 1.533-1.032.54-.98-.195.011-.544.339-.763.453zm-.687.267c.015.206-.172 1.035.205.709.173-.151.177-.915-.205-.709zm32.763-18.159c-.822.057 2.59-1.468 2.704-1.469.059.002.101.01.127.022.095-.156.736-.495.881-.301-.201.079-.721.366-.789.371-.03.002-.052.002-.069-.002-.179.325-2.65 1.355-2.854 1.379zm-5.701 2.489c.686-.918 1.11-.157 1.043-.093-.815.813-.409-.113-.447-.127-.081-.016-.64.603-.593.219-.001 0-.002.001-.003.001zm4.495-2.033c.03-.027.756-.363.79-.366.669-.034-1.379.923-.79.366zm-113.817 92.074c.453-.278.511.402.14.527-.032.008-.539-.281-.14-.527zm82.002-74.036c-.137-.014-2.618 1.433-2.12 1.932.148-.229 2.941-1.872 2.12-1.932zm-17.066 14.365c.404-.373.427.603.041.597-.144-.003-.143-.503-.041-.597zm-72.73 69.142c-.019.62-1.011-.145-.356-.276.026-.005.357.252.356.276zm76.226-71.84c-1.114 1.63-2.218-.46.096-1.529.005.131.01.262.015.393 2.271-1.614.248-.014-.195.565-.166.218.231.365.087.572-.001 0-.002-.001-.003-.001zm-5.698 4.712c-2.434.019.916-1.651 1.508-2.499-.288 1.196-1.3 2.016.422 1.343-1.789 1.879-1.437.641-1.542.665-.13.038-.282.489-.388.491zm3.602-3.4c.05-.111.841-.398 1.013-.632.058.7-1.329 1.369-1.013.632zm37.331-25.796c-.038-.32.037-.609.657-.802-.133.236-.461.552-.657.802zm-135.72 134.301c-.246.402-.798 1.199-.395 1.039.039-.021.545-.985.395-1.039zm107.268-116.576c-.097.01-1.828 1.439-.978 1.311.249-.039 1.776-1.404.978-1.311zm9.152-6.892c-.159.102-.75.597-.72.686.102.305.784-.377.72-.686zm-117.825 125.458c-.054.041-.696 1.302-.504 1.208.367-.184.695-1.36.504-1.208zm33.929-51.43c.06-.088.527.119.557.096.059-.055 1.286-1.586 1.236-.645-.016.158-2.133 2.015-2.426 2.248-.607-.31.699-.788.852-1.043.025-.045-.377-.419-.218-.654 0-.001-.001-.002-.001-.002zm106.182-86.749c.013-.315 2.164-1.598 2.253-1.281-.769.43-1.493.848-2.253 1.281zm-1.178.546c-.547.056.565-.579.937-.669.059.176-.86.661-.937.669zm-25.219 13.411c-.136.209.686.276.613.457-.048.114-.548.231-.592.473-.008.072.65.214.755.108.153-.148-.205-.376-.023-.512.605-.451 1.292-.597 1.871-1.011.052-.038-.484.002-.036-.307.07-.048.674.025 1.19-.402.657-1.948 2.08-1.429 3.509-2.849-.098-.072-1.453.415-1.523.447-1.414.655-3.753 2.189-5.071 3.132-.338.239-.04.362-.18.474-.11.089-.225-.452-.513-.01zm-112.372 121.947c-.44.075-.607.842-.869 1.283.38-.052.56-.882.869-1.283zm127.68-130.484c-.206.131-.898.364-.901.516-.006.201.96-.214.901-.516zm-87.015 73.492c.004-.026.436-.397.465-.399.714-.019-.582 1.088-.465.399zm10.047-9.259c.27-.351.465-.793.922-.535-.262.138-.718.82-.922.535zm14.187-12.199c-.508-.434.84-1.024 1.087-1.159.114.289-.742 1.49-1.087 1.159zm70.373-56.777c.724-.34.371-.863.926-.822.092.009.75 1.129-.201 1.068-.17-.012.284-.59-.725-.246zm-34.322 23.914c-.094-.444.423-.754.745-1.002.104.294-.544.781-.745 1.002zm-103.786 115.761c-.496.243-1.151 1.956-.737 1.619.051-.028.605-1.402.737-1.619zm30.126-47.322c.076-.751-.92.198-.854.773.103-.165.848-.724.854-.773zm33.684-32.728c.016-.039.676-.531.718-.536.843-.045-1.022 1.35-.718.536zm-14.149 11.877c-.082-.46 1.465-1.468 2.048-1.47.104.688-1.953 2.05-2.048 1.47zm85.508-69.8c.503-.277 1.021-.452 1.54-.591-.035.26-1.434.722-1.54.591zm-69.105 55.97c.035-.026.091-.024.125-.047-.042.017-.084.031-.125.047zm58.011-50.055c-.437.145-.165.521-.136.519.355-.041.632-.683.136-.519zm-122.004 127.94c-.378.047-.555.885-.859 1.298.296-.044.704-.941.859-1.298zm93.469-104.584c-.802-.025.562-2.199 1.186-2.283.227.257-1.061 2.27-1.186 2.283zm-67.342 62.504c-.346-.187-.567.808-.289.755.176-.032.502-.638.289-.755zm69.594-65.457c.092-.253.734-.308.75.007.022.405-.771.061-.75-.007zm14.677-13.107c-.104.007-.881 1.083-.279 1.088.415.003.179-.48.245-.533.073-.057 1.981-.703.034-.555zm-27.539 25.502c.296-.496.899-.796 1.3-1.185.006.351-.899 1.289-1.3 1.185zm-54.435 50.217c-.212-.008-2.315 2.3-.772 1.243.087-.062 1.387-1.217.772-1.243zm107.613-90.632c-.091.043-.199.083-.328.117.122-.05.233-.084.328-.117zm-8.15 4.188c.081-.296-.761.088-.952.329.027.298.937-.288.952-.329zm-43.977 34.687c.121-.352.667-.604.939-.885.139.26-.646 1.01-.939.885zm-17.244 15.023c.612-.296 1.162-.88.938-1.162.046.034.109.059.187.071.079.01.492-.57.795-.671 1.862-.641-5.045 4.923-1.8.782-.039.326-.08.653-.12.98zm-21.442 18.68c-.56-.063-.878.978-.576.924.207-.036 1.136-.857.576-.924zm9.753-9.407c-.135.018-.649.908-.508 1.091.58-.204 1.121-1.163.508-1.091zm-12.034 10.877c-.206.107.086.779.126.782.34.023.416-.769-.126-.782zm91.165-74.456c-.348.022-1.18.804-1.274 1.199-.058-.038-.185-.061-.401-.057 0 0 .001 0 .001-.001-.316-.008-7.751 3.697-2.606 1.711.163-.062-.154-.222.505-.503.043-.019.145.19.28.133.318-.135 1.968-.819 2.222-1.151.017.038.051.065.107.078.495.107 1.428-1.43 1.166-1.409zm-78.414 62.956c-.241.033-.674.541-.534.816.35-.094 1.095-.893.534-.816zm-28.232 27.489c-.419.143-.679 1.089-.32 1.009.219-.048.801-1.172.32-1.009zm24.446-23.902c1.9-1.27.376-.385.324-.938-.109.314-.206.617-.324.938zm92.031-70.507c-.343.101-.112-.558.331-.472.139.027-.141.414-.331.472zm15.234-7.344c-.378-.182 1.072-.653.59-.183-.024.02-.566.186-.59.183zm-10.754 4.873c-.141.373-.273.474-.959.719.95-.533.001-.357.959-.719zm-80.857 59.54c.017.014.03.024.042.039-.016-.012-.03-.024-.042-.039zm-26.031 22.887c-.511-.11-1.036.442-.558.585.045.013.707-.285.558-.585zm91.303-74.793c.051.033.045.074.001.132-.016-.036-.014-.079-.001-.132zm-88.534 71.663c.21.25 1.171-.482 1.181-.544.103-.877-.841.195-1.181.544zm-21.835 23.032c-.01.061.844.178.738-.16-.083-.264-.704-.074-.738.16zm128.09-103.451c.36-.167.873-.404 1.027-.252-.255.084-.991.402-1.027.252zm8.01-3.726c-.343.39-1.378.868-2.01 1.124-.103-.265 1.651-.881 2.01-1.124zm-23.448 10.961c-.036-.001-.963.314-.751.516.305.296 1.051-.499.751-.516zm-111.261 95.087c.034-.453-1.186-.174-.938.49.127.338.932-.415.938-.49zm15.533-17.485c-.223.547 1.061-.117.892-.547-.209.155-.813.353-.892.547zm13.603-13.428c-2.2.302.122 1.314.214.951.013-.051-.161-.959-.214-.951zm-58.45 79.868c-.041.263.714-.506.575-.686-.088-.114-.549.517-.575.686zm79.591-96.873c-.058.056-.115.113-.172.168.031-.055.085-.112.172-.168zm-39.463 32.83c2.115.294 1.049-.502 1.127-.573.174-.15.892-.212 1.143-.57-.209.483-.413.962-.613 1.437.358-.194 3.222-2.127 3.071-2.366-.22-.346-.887.484-.933.48-.068-.003-.999-.644-1.1-.604-.155.053-2.195 2.071-2.695 2.196zm15.702-13.129c.308-.1.685.172.709.001.008-.058-.288-.376-.25-.565-.153.189-.307.377-.459.564zm-16.061 15.694c-.617-.088.588-1.054.668-1.052.44.042-.168 1.128-.668 1.052zm9.289-9.24c-.066.021-1.036.719-.83.923.389-.068 1.588-1.116.83-.923zm7.355-7.172c.369-.274 1.247-.489.73-.903 0 0-.001 0-.001.001-.243.3-.475.59-.729.902zm-27.266 27.188c-1.225.054-.042.438.613.103-.218-.391-.414-.112-.613-.103zm-2.034 1.483c-.267.071-1.397 1.878-.796 1.873.212-.001.585-1.209.649-1.236.093-.04.304.559.611-.014-.175-.069-.375-.648-.464-.623zm1.163-1.339c-1.039.189-.067 1.041.278.609.136-.168-.129-.634-.278-.609zm1.985-2.282c-.269.129-.869.579-.819 1.207.441-.485.888-.971 1.333-1.445-.153-.204-.277.124-.515.239.001 0 .001-.001.001-.001zm137.858-105.654c-.664.104.747-.55.822-.538.216.047-.527.49-.822.538zm-176.082 161.114c-.134.147-.403.181-.424.601.308-.324.62-.645.935-.961-.28-.428-.363.2-.511.36zm-1.918.985c.01-.058-.669.042-.045-.533.425-.37-.203 2.25-.603 2.619.059-.551.559-1.585.648-2.086zm-3.755 3.693c-.049.016.163-1.007.224-1.111.326-.551.044 1.019-.224 1.111zm.978-3.125c-.235.421-.026-.619.12-.896.115.007-.084.83-.12.896zm172.08-168.91c-.642-.306-.839.7-.098.339.036-.017.126-.324.098-.339zm-173.324 170.873c.227-.433.018.628-.123.921-.103-.004.089-.855.123-.921zm172.668-171.788c-.78-.167-.238.804-.141.825.397.084 1.507-.569 1.736-.714-1.802.53-1.225-.036-1.595-.111zm-2.946 1.267c-.582.249 1.057.122 1.28-.236-.308.08-1.115.166-1.28.236zm-3.955.477c-.353.033-1.381.147-1.489.368.351-.112 1.4-.151 1.489-.368zm-.929-.381c-.601-.141-.506.614.033.269.021-.014-.009-.259-.033-.269zm-3.073.361c-.449-.227-.624.598-.046.492.172-.033.095-.466.046-.492zm9.717-2.657c-.538-.023-1.052.545.035.397-.358.137-.713.276-1.066.415 1.468-.013 1.191-.611 1.605-.657.581-.067.682.436.613.615.386-.4 2.361-.768 3.446-1.015-1.008.055-2.679.123-3.72.223-.292.027-.528.214-.773.243-.394.043-.11-.219-.138-.221-.001 0-.001 0-.002 0zm-13.64 3.495c-1.173-.123-.254.507.293.232.024-.017-.263-.229-.293-.232zm-159.746 170.05c.514-1.309.605-.221.782-3.219.061 1.301.22.146.3.423.062.221-.187.891.115.556-.35.449-.829 2.829-.889 2.928 0-.001 0-.002 0-.003-.034.057-.471-.264-.308-.685zm167.12-172.681c-.599-.782-.33.588-1.212.006-.586 1.196 2.477-.451 3.165.305-3.753.631 2.716.34-.266-.395 2.303.041.666-.284.955-.502.327-.236 1.527-.248 1.389-.533-.001.001-.002.001-.002.001-.712.138-1.432.282-2.188.439.929.519-.661.611-1.335.155-.17.174-.339.348-.506.524zm4.348-.16c-.078-.002-1.6.375-1.48.493.268.031 2.418-.474 1.48-.493zm6.959-1.373c-.57.096-1.47.132-1.711.398.557-.094 1.46-.139 1.711-.398zm-29.508 6.012c-.649.456 1.663-.057.894-.197-.039-.006-.863.175-.894.197zm16.596-4.044c-.806-.129-.207.653.264.328.027-.019-.226-.322-.264-.328zm-165.345 171.098c-.14-.105.393-2.053.467-2.396.11.244-.306 2.508-.467 2.396zm179.092-173.828c-1.318-.401-2.645.5-2.811.519-.17.01.012-.295-.027-.296-.066-.01-1.906.307-1.989.341-.059.026.386.357.043.544.719-.363 3.964-.737 4.137-.808.124-.051-.983-.271.645-.299.001-.001.002-.001.002-.001zm-3.248.502c.495.084-.768.313-1.104.308-.737-.017 1.057-.323 1.104-.308zm-3.126.354c-.158-.013-1.461.161-1.51.371.676.146 1.862-.339 1.51-.371zm-14.479 2.654c-.337.102-1.335.113-1.321.332.329-.1 1.331-.116 1.321-.332zm-158.131 163.075c-.24.511-.047-.798.09-1.146.113.016-.069 1.102-.09 1.146zm164.574-165.609c-.154-.051-4.36.826-4.853 1.017.561.059 4.76-.677 4.866-.752.046-.029.015-.26-.013-.265zm8.866-1.406c.314-.287.648-.042.697-.046.489-.033 1.462-.221 1.306.027-.863.028-2.63.596-2.003.019zm-16.04 2.633c-1.386.382 1.448.181.994-.065-.03-.014-.852.026-.994.065zm7.601-1.377c.196-.26 4.484-.729 5.093-.807-.46.454-1.03.246-1.84.39-.217.04-.111.191-.134.195-.375.067-.148-.163-.382-.13-.161.02-3.079.729-2.737.352zm8.61-1.448c.208-.174 2.774-.556 2.87-.529.842.148-2.626.537-2.87.529zm-9.091 1.144c.286-.537 2.425-.521 1.098-.084-.126.042-.748-.077-1.098.084zm-7.126 1.155c-.079-.002-1.591.159-1.559.333.225.028 2.412-.309 1.559-.333zm.601-.696c-.035.01.418.266-.3.349-.059.007-.287-.334-1.122-.05-.169.059-.366.348-.341.36 1.085.398 3.503-1.147 1.763-.659zm15.598-1.836c-.175-.1.063-.491.424-.354.155.059-.033.298-.424.354zm-20.908 3.246c.774-.458-1.975.017-2.075.119.144.168 1.992-.073 2.075-.119zm-154.109 162.318v.002c.163-.682.275-.186.285-.217.532-1.423.049-1.175.038-1.429-.02-.553.484-.291.42-1.225.067 1.533.163.191.358.217.788.097-.707 1.787-.66 2.539.003.104.361-.53.383-.257.06.864-1.448 3.009-.824.37zm175.672-165.978c.322-.259 2.817-.332 2.215-.101-.086.031-2.609.456-2.215.101zm-108.988 50.967c.181-.693-1.181-.195-1.169.218.008.204 1.091.086 1.169-.218zm-8.52 4.832c-.513.546.092 2.315.556 1.567.05-.081-.337-1.436-.556-1.567zm37.146-28.619c-1.008.019-.285.822.174.467.162-.124-.142-.467-.174-.467zm-22.547 17.802c-.089.022-.701.618-.5.794.322-.059 1.062-.9.5-.794zm22.653-18.067c-.256.424.887.549.867-.366-.194.215-.841.323-.867.366zm68.576-26.195c-.311.299-1.411.384-2.005.517-.17-.317 1.571-.395 2.005-.517zm-103.077 53.67c-.227.758 1.086.115.616-.238-.034-.012-.608.207-.616.238zm56.939-41.31c-.352.506 1.47.081.755-.165-.033-.009-.736.136-.755.165zm7.236-2.995c-.443.067-2.099.783-1.315.768.119-.004 1.405-.52 1.315-.768zm-124.96 154.136c-.32.104-.058-1.056.021-1.204.035-.059.399 1.067-.021 1.204zm91.063-134.113c-.284.307-1.164.791-1.108 1.143.34-.339 1.603-.737 1.108-1.143zm-28.001 22.363c-.88-.157-1.571.511-.81 1.043.778-.732-.623-.529.81-1.043zm33.914-27.597c-.3.152.003.907.055.916.502.078.411-.869-.055-.916zm-18.416 14.862c-.248-.263-.91.478-.656.572.085.031.858-.361.656-.572zm72.005-36.977c-.529-.118.807-.573 1.31-.415.315.299-1.247.428-1.31.415zm-45.71 17.068c-.245-.419-1.54.733-.723.688.203-.012.804-.549.723-.688zm14.591-8.563c-.831.946 3.953-.752 2.43-.796-.113-.008-2.359.71-2.43.796zm7.743-2.802c-.215.02-.751-1.305.291-1.091.135.027-.19.541-.067.588.07.025 1.893-.404 1.962-.46.071-.063-.223-.438-.156-.514.081-.088 1.291-.073 1.849-.248 1.05-.328 1.02-.698 1.106-.727.248-.078.799.021 1.288-.123 2.521-.77 6.325-2.034 8.554-1.807-1.841.131-3.475.866-5.177 1.434.24-.839-2.416 1.278-.9-.044-.769.341-8.035 2.846-8.748 2.991-.001.001-.001.001-.002.001zm-71.567 48.713c-.076-.758-1.653.774-1.337 1.456.29-.116 1.345-1.37 1.337-1.456zm6.789-7.73c.09-.215-.548-1.277.683-1.494 0 0 .001-.001.002-.002.359-.063.277.393.39.437.045.02 1.19-.142.629.452-.859.911-.678-.619-1.198-.203-.062.049-.61 1.369-.46 1.434.017.008.221-.345.309-.34.33.02.488.386.526.378.118-.039 1.225-1.807 1.808-1.553.199.071-2.039 2.488-2.21 2.509-.102.007-.762-.824-.895-.849-.075-.006-.822 1.139-1.004 1.165-.055.009-.103.01-.14.008.361.126-.544.855-.756.55-.078-.125.589-.576.627-.574.016 0 .034.005.049.006-.404-.185 1.743-1.959.899-2.028.415-.772.476.739.741.104zm2.525-2.947c.01.136.02.272.03.409.854-1.06 2.544-1.761 3.767-2.766.315-.258-.488-.478.044-.673.427-.156 1.197.027 1.111.278-.021.061-.955.296-1.267.605-.919.915-.29 1.153-.337 1.212-.054.066-.957.278-1.297.582-.867.777-.998 1.35-2.466 1.96.42-.85-.488-1.184.415-1.607zm45.462-31.633c-.121-.295.984-.579 1.304-.802.118.292-.986.572-1.304.802zm-101.947 105.759c.315.505 1.227-1.674.659-1.263-.131.099-.558.982-.659 1.263zm4.281-9.952c.012-.37-.839.659-.498.848.108.058.496-.801.498-.848zm66.822-75.215c.032-.049.745-.441.784-.434.824.145-1.481 1.498-.784.434zm-61.171 62.846c-.302 1.2 1.603-1.715.692-1.058-.047.032-.679 1-.692 1.058zm2.449-4.2c-.136.245-.933 1.187-.807 1.299.201.178 1.098-.905.807-1.299zm75.01-70.994c-.497-.416 1.067-.92 1.454-1.276.492.415-1.062.907-1.454 1.276zm-7.882 5.085c4.667-4.044 4.42-2.189-.086.455-.273-.312-.199-.204.086-.455zm6.516-4.607c.068.442-.59.76-1.007 1.016-.107-.269.769-.763 1.007-1.016zm-87.589 99.414c-.263-.568.799-2.093.855-1.703.008.084-.699 1.955-.855 1.703zm72.693-88.284c-.528-.405 1.05-1.299 1.246-1.27.805.1-1.22 1.068-1.246 1.27zm23.699-17.122c.029-.558 1.029-.89 1.593-1.22-.029.47-1.118.935-1.593 1.22zm-4.132 2.202c.023-.038.795-.49.842-.494.889-.037-1.289 1.247-.842.494zm-101.589 146.41c-.004-.029.083-.636.094-.654.284-.47.017 1.349-.094.654z" fill="#102029"/></g></svg>